<svg id="Ebene_1" data-name="Ebene 1" xmlns="http://www.w3.org/2000/svg" xmlns:xlink="http://www.w3.org/1999/xlink" viewBox="0 0 358.38 87.23" preserveAspectRatio="xMidYMid meet"><defs><style>.cls-1{fill:none;}.cls-2{clip-path:url(#clip-path);}.cls-3{fill:#1d1d1b;}.cls-4{fill:#b6c229;}</style><clipPath id="clip-path" transform="translate(-22.61 -19.67)"><rect class="cls-1" x="22.61" y="19.67" width="358.38" height="87.24"/></clipPath></defs><title>17DDL100 Logo</title><g class="cls-2"><path class="cls-3" d="M80.51,65.16H72.2V61.31h-.12a10.31,10.31,0,0,1-3.46,3.07A12.49,12.49,0,0,1,66,65.46a10.27,10.27,0,0,1-2.92.43,15.13,15.13,0,0,1-5.9-1.12,13,13,0,0,1-4.54-3.13,13.83,13.83,0,0,1-2.92-4.78,17.47,17.47,0,0,1-1-6.08,18.44,18.44,0,0,1,.93-5.86,15.9,15.9,0,0,1,2.65-5,13,13,0,0,1,4.18-3.46,11.89,11.89,0,0,1,5.6-1.29,15.52,15.52,0,0,1,5.26.87,8.34,8.34,0,0,1,4,3h.12V19.67h9ZM72.2,50.54a7.57,7.57,0,0,0-1.89-5.35,6.9,6.9,0,0,0-5.33-2,6.87,6.87,0,0,0-5.32,2,7.58,7.58,0,0,0-1.9,5.35,7.6,7.6,0,0,0,1.9,5.36,6.9,6.9,0,0,0,5.32,2,6.93,6.93,0,0,0,5.33-2A7.6,7.6,0,0,0,72.2,50.54Z" transform="translate(-22.61 -19.67)"/><path class="cls-3" d="M87.13,26.71a5.24,5.24,0,1,1,8.93,3.7,5.23,5.23,0,0,1-8.93-3.7Zm.72,9.21h9V65.16h-9Z" transform="translate(-22.61 -19.67)"/><path class="cls-3" d="M103.37,35.92H112v4h.12a7.29,7.29,0,0,1,1.2-1.68,8.3,8.3,0,0,1,1.87-1.51,10.63,10.63,0,0,1,2.46-1.08,10.33,10.33,0,0,1,3-.42,11.47,11.47,0,0,1,5.45,1.26,8.06,8.06,0,0,1,3.58,4,9.72,9.72,0,0,1,3.79-4A11.4,11.4,0,0,1,139,35.2a11.23,11.23,0,0,1,5,1,8.12,8.12,0,0,1,3.18,2.71,11.27,11.27,0,0,1,1.69,4,23,23,0,0,1,.51,5V65.16h-9v-17a6.85,6.85,0,0,0-.88-3.53,3.3,3.3,0,0,0-3.1-1.47,6,6,0,0,0-2.61.51A4.26,4.26,0,0,0,132,45.06a6,6,0,0,0-.9,2.11,11.61,11.61,0,0,0-.27,2.53V65.16h-9V49.7c0-.52,0-1.16-.06-1.93a7.67,7.67,0,0,0-.42-2.16,4.16,4.16,0,0,0-1.17-1.75,3.49,3.49,0,0,0-2.38-.72,5.62,5.62,0,0,0-2.83.63,4.32,4.32,0,0,0-1.65,1.69,6.87,6.87,0,0,0-.75,2.37,20.68,20.68,0,0,0-.18,2.77V65.16h-9Z" transform="translate(-22.61 -19.67)"/><path class="cls-3" d="M183.4,60.11a14.45,14.45,0,0,1-5.48,4.27,16.42,16.42,0,0,1-6.86,1.51,18.54,18.54,0,0,1-6.35-1.09,15.14,15.14,0,0,1-5.17-3.1,14.57,14.57,0,0,1-3.46-4.84,16.48,16.48,0,0,1,0-12.64,14.57,14.57,0,0,1,3.46-4.84,15.3,15.3,0,0,1,5.17-3.1,18.53,18.53,0,0,1,6.35-1.08,14.5,14.5,0,0,1,5.69,1.08,11.87,11.87,0,0,1,4.33,3.1,14.14,14.14,0,0,1,2.74,4.84,19.64,19.64,0,0,1,1,6.32v2.83H163.84a7.16,7.16,0,0,0,2.35,4.12A6.65,6.65,0,0,0,170.64,59a6.8,6.8,0,0,0,3.76-1,10,10,0,0,0,2.68-2.56Zm-7.64-12.88a5.24,5.24,0,0,0-1.51-3.91,5.34,5.34,0,0,0-4-1.62,6.85,6.85,0,0,0-2.65.48,6.62,6.62,0,0,0-1.95,1.23,5.35,5.35,0,0,0-1.27,1.75,5.73,5.73,0,0,0-.51,2.07Z" transform="translate(-22.61 -19.67)"/><path class="cls-3" d="M190.26,35.92h8.66v4H199a7.29,7.29,0,0,1,1.2-1.68,8.77,8.77,0,0,1,1.87-1.51,10.53,10.53,0,0,1,2.47-1.08,10.26,10.26,0,0,1,3-.42,12.49,12.49,0,0,1,5.54,1,8,8,0,0,1,3.28,2.92A11.82,11.82,0,0,1,218,43.56a33.47,33.47,0,0,1,.43,5.48V65.16h-9V50.84c0-.84,0-1.71-.09-2.62a8.23,8.23,0,0,0-.54-2.49,4.35,4.35,0,0,0-1.39-1.87,4.29,4.29,0,0,0-2.67-.72,5.57,5.57,0,0,0-2.83.63,4.34,4.34,0,0,0-1.66,1.69,6.87,6.87,0,0,0-.75,2.37,20.68,20.68,0,0,0-.18,2.77V65.16h-9Z" transform="translate(-22.61 -19.67)"/><path class="cls-3" d="M241.34,44.52a6.39,6.39,0,0,0-5.23-2.46,4.92,4.92,0,0,0-2.23.54,1.91,1.91,0,0,0-1.08,1.86,1.68,1.68,0,0,0,1.11,1.6,14.57,14.57,0,0,0,2.83.9l3.67.84a13.84,13.84,0,0,1,3.67,1.42,8.24,8.24,0,0,1,2.83,2.62A7.8,7.8,0,0,1,248,56.26a8.2,8.2,0,0,1-1.23,4.66,9.59,9.59,0,0,1-3.16,2.95,13.66,13.66,0,0,1-4.34,1.56,25.72,25.72,0,0,1-4.75.46,23.15,23.15,0,0,1-6.2-.88,11.51,11.51,0,0,1-5.29-3.1l5.48-6.07a9.06,9.06,0,0,0,2.79,2.37,7.48,7.48,0,0,0,3.58.82,8.4,8.4,0,0,0,2.83-.46A1.66,1.66,0,0,0,239,56.92a1.85,1.85,0,0,0-1.11-1.72,12.09,12.09,0,0,0-2.83-1l-3.67-.84a15.35,15.35,0,0,1-3.67-1.35,7.21,7.21,0,0,1-3.94-7,9,9,0,0,1,1-4.45,9.5,9.5,0,0,1,2.77-3.07,12,12,0,0,1,3.94-1.77,18.18,18.18,0,0,1,4.52-.57,21.18,21.18,0,0,1,5.83.84,10.79,10.79,0,0,1,5,3Z" transform="translate(-22.61 -19.67)"/><path class="cls-3" d="M252.05,26.71a5.24,5.24,0,0,1,10.47,0,5.24,5.24,0,1,1-10.47,0Zm.72,9.21h9V65.16h-9Z" transform="translate(-22.61 -19.67)"/><path class="cls-3" d="M267.21,50.54a15.25,15.25,0,0,1,1.27-6.32,14.43,14.43,0,0,1,3.46-4.84,15.3,15.3,0,0,1,5.17-3.1,19.21,19.21,0,0,1,12.7,0,15.3,15.3,0,0,1,5.17,3.1,14.43,14.43,0,0,1,3.46,4.84,16.48,16.48,0,0,1,0,12.64A14.43,14.43,0,0,1,295,61.7a15.14,15.14,0,0,1-5.17,3.1,19,19,0,0,1-12.7,0,15.14,15.14,0,0,1-5.17-3.1,14.43,14.43,0,0,1-3.46-4.84A15.21,15.21,0,0,1,267.21,50.54Zm9,0a7.6,7.6,0,0,0,1.89,5.36,8,8,0,0,0,10.65,0,7.56,7.56,0,0,0,1.9-5.36,7.53,7.53,0,0,0-1.9-5.35,7.94,7.94,0,0,0-10.65,0A7.57,7.57,0,0,0,276.24,50.54Z" transform="translate(-22.61 -19.67)"/><path class="cls-3" d="M305,35.92h8.66v4h.12A7.35,7.35,0,0,1,315,38.21a8.47,8.47,0,0,1,1.86-1.51,10.91,10.91,0,0,1,2.47-1.08,10.28,10.28,0,0,1,3-.42,12.44,12.44,0,0,1,5.53,1,8,8,0,0,1,3.28,2.92,11.66,11.66,0,0,1,1.6,4.39,33.51,33.51,0,0,1,.42,5.48V65.16h-9V50.84c0-.84,0-1.71-.09-2.62a8.23,8.23,0,0,0-.54-2.49,3.86,3.86,0,0,0-4.06-2.59,5.6,5.6,0,0,0-2.83.63A4.32,4.32,0,0,0,315,45.46a6.88,6.88,0,0,0-.76,2.37A20.68,20.68,0,0,0,314,50.6V65.16h-9Z" transform="translate(-22.61 -19.67)"/><path class="cls-3" d="M357.89,61.49h-.12a8.5,8.5,0,0,1-4,3.37,13.82,13.82,0,0,1-5.27,1,13.61,13.61,0,0,1-3.94-.58,10,10,0,0,1-3.34-1.71,8.32,8.32,0,0,1-2.29-2.83,8.66,8.66,0,0,1-.84-3.91,9,9,0,0,1,.93-4.27,8.4,8.4,0,0,1,2.53-2.89,12.85,12.85,0,0,1,3.64-1.78,26.86,26.86,0,0,1,4.24-.93,40.77,40.77,0,0,1,4.4-.36c1.46,0,2.81-.06,4.06-.06a4.68,4.68,0,0,0-1.72-3.82,6.18,6.18,0,0,0-4.06-1.42,8.86,8.86,0,0,0-4.06.94,11.1,11.1,0,0,0-3.28,2.55L340,39.89a16.58,16.58,0,0,1,5.89-3.52,21.18,21.18,0,0,1,7-1.17,18.28,18.28,0,0,1,6.53,1,9.38,9.38,0,0,1,4.09,2.92,11.14,11.14,0,0,1,2.14,4.72,31.11,31.11,0,0,1,.6,6.47V65.16h-8.3Zm-2.23-9.14c-.68,0-1.53,0-2.56.09a12.92,12.92,0,0,0-2.94.51,6.51,6.51,0,0,0-2.41,1.26,2.91,2.91,0,0,0-1,2.35A2.6,2.6,0,0,0,348.14,59a5.78,5.78,0,0,0,2.89.78,8.81,8.81,0,0,0,2.56-.37,7.35,7.35,0,0,0,2.19-1,5.06,5.06,0,0,0,1.54-1.68,4.85,4.85,0,0,0,.57-2.41V52.35Z" transform="translate(-22.61 -19.67)"/><path class="cls-3" d="M372,19.67h9V65.16h-9Z" transform="translate(-22.61 -19.67)"/><path class="cls-4" d="M35.55,106.91a17.89,17.89,0,0,0,5.82-.92A13.2,13.2,0,0,0,46,103.31,12.34,12.34,0,0,0,49.06,99a14.31,14.31,0,0,0,1.11-5.79,14.88,14.88,0,0,0-.23-2.63,10.52,10.52,0,0,0-.32-1.22l0-.11a8.55,8.55,0,0,0-3.68-4.6,13.88,13.88,0,0,0-3.17-1.39l7.64-10.69V67.85H24.63v7.48h15s-3.91,5.36-6.07,8.31v4.61a8.67,8.67,0,0,1,3.94-.06,5.58,5.58,0,0,1,3.78,2.67A5.84,5.84,0,0,1,42.05,94a5.75,5.75,0,0,1-1.54,4.12,5.46,5.46,0,0,1-4.15,1.62,5.06,5.06,0,0,1-3.52-1.27,5.56,5.56,0,0,1-1.73-3.33l-8.5,2a12.45,12.45,0,0,0,4.6,7.36,13.79,13.79,0,0,0,8.34,2.44" transform="translate(-22.61 -19.67)"/></g></svg>
