<?xml version="1.0" encoding="utf-8"?>
<!-- Generator: Adobe Illustrator 22.1.0, SVG Export Plug-In . SVG Version: 6.00 Build 0)  -->
<svg version="1.1" id="Ebene_1" xmlns="http://www.w3.org/2000/svg" xmlns:xlink="http://www.w3.org/1999/xlink" x="0px" y="0px"
	 viewBox="0 0 357.9 128" style="enable-background:new 0 0 357.9 128;" xml:space="preserve">
<style type="text/css">
	.st0{fill:#FFFFFF;}
	.st1{fill:#B6C229;}
</style>
<title>17DDL100 Logo</title>
<g>
	<path class="st0" d="M79.2,39.5h-0.1c-1,1.7-2.3,2.9-4,3.7c-1.7,0.8-3.5,1.2-5.5,1.2c-2.2,0-4.1-0.4-5.7-1.1
		c-1.7-0.8-3.1-1.8-4.3-3.1c-1.2-1.3-2.1-2.8-2.7-4.6c-0.6-1.8-0.9-3.7-0.9-5.7c0-2,0.3-3.9,1-5.7c0.7-1.8,1.6-3.3,2.7-4.6
		c1.2-1.3,2.6-2.3,4.2-3.1c1.7-0.8,3.5-1.1,5.4-1.1c1.3,0,2.5,0.1,3.5,0.4c1,0.3,1.9,0.6,2.7,1c0.8,0.4,1.4,0.9,2,1.4
		c0.5,0.5,1,1,1.3,1.4h0.2V0h6.9v43.7h-6.6V39.5z M62.8,29.8c0,1.1,0.2,2.1,0.5,3.1c0.4,1,0.9,1.9,1.6,2.7c0.7,0.8,1.6,1.4,2.6,1.8
		c1,0.5,2.1,0.7,3.4,0.7c1.3,0,2.4-0.2,3.4-0.7c1-0.5,1.9-1.1,2.6-1.8c0.7-0.8,1.3-1.7,1.6-2.7c0.4-1,0.5-2,0.5-3.1
		c0-1.1-0.2-2.1-0.5-3.1c-0.4-1-0.9-1.9-1.6-2.7c-0.7-0.8-1.6-1.4-2.6-1.8c-1-0.5-2.1-0.7-3.4-0.7c-1.3,0-2.4,0.2-3.4,0.7
		c-1,0.5-1.9,1.1-2.6,1.8c-0.7,0.8-1.3,1.7-1.6,2.7C63,27.7,62.8,28.7,62.8,29.8z"/>
	<path class="st0" d="M91.3,6.5c0-1.1,0.4-2.1,1.2-2.9c0.8-0.8,1.9-1.2,3.1-1.2c1.3,0,2.3,0.4,3.2,1.2c0.9,0.8,1.3,1.8,1.3,3
		c0,1.2-0.4,2.2-1.3,3c-0.9,0.8-1.9,1.2-3.2,1.2c-1.3,0-2.3-0.4-3.1-1.2C91.7,8.6,91.3,7.6,91.3,6.5z M92.3,15.9h6.9v27.7h-6.9V15.9
		z"/>
	<path class="st0" d="M105.5,15.9h6.6v4.3h0.1c0.6-1.3,1.6-2.5,3-3.5c1.4-1,3.2-1.5,5.5-1.5c4.4,0,7.2,1.7,8.7,5.1
		c1-1.8,2.3-3.1,3.8-3.9c1.5-0.8,3.3-1.2,5.4-1.2c1.8,0,3.4,0.3,4.7,0.9c1.3,0.6,2.3,1.5,3.1,2.5c0.8,1.1,1.4,2.3,1.7,3.8
		c0.3,1.4,0.5,3,0.5,4.6v16.5h-6.9V28c0-0.8-0.1-1.7-0.2-2.5c-0.2-0.8-0.4-1.5-0.8-2.1c-0.4-0.6-0.9-1.1-1.6-1.4
		c-0.7-0.3-1.5-0.5-2.5-0.5c-1.1,0-2,0.2-2.7,0.6s-1.4,0.9-1.8,1.6c-0.5,0.7-0.8,1.4-1,2.3c-0.2,0.9-0.3,1.7-0.3,2.6v15h-6.9V27.1
		c0-1.7-0.4-3.1-1.1-4.1c-0.7-1-1.9-1.5-3.6-1.5c-1.2,0-2.1,0.2-2.9,0.6c-0.8,0.4-1.4,0.9-2,1.6c-0.5,0.7-0.9,1.4-1.1,2.3
		c-0.2,0.8-0.3,1.7-0.3,2.7v15.1h-6.9V15.9z"/>
	<path class="st0" d="M160.1,32.2c0.2,2.1,1,3.7,2.4,4.9s3.1,1.7,5,1.7c1.7,0,3.2-0.4,4.4-1.1c1.2-0.7,2.2-1.6,3.1-2.7l5,3.8
		c-1.6,2-3.4,3.4-5.4,4.3c-2,0.8-4.1,1.3-6.3,1.3c-2.1,0-4-0.3-5.9-1c-1.8-0.7-3.4-1.7-4.8-2.9c-1.3-1.3-2.4-2.8-3.2-4.6
		c-0.8-1.8-1.2-3.8-1.2-6s0.4-4.2,1.2-6c0.8-1.8,1.9-3.3,3.2-4.6c1.3-1.3,2.9-2.3,4.8-2.9c1.8-0.7,3.8-1,5.9-1c1.9,0,3.7,0.3,5.3,1
		c1.6,0.7,3,1.6,4.1,2.9c1.1,1.3,2,2.8,2.7,4.7c0.6,1.9,1,4,1,6.4v1.9H160.1z M174.3,27c0-2-0.7-3.6-1.9-4.8
		c-1.2-1.2-2.9-1.8-5.1-1.8c-2.1,0-3.7,0.6-4.9,1.8c-1.2,1.2-2,2.8-2.2,4.8H174.3z"/>
	<path class="st0" d="M186.3,15.9h6.6v4.4h0.1c0.7-1.4,1.7-2.6,3-3.6c1.3-1,3.2-1.5,5.5-1.5c1.8,0,3.4,0.3,4.7,0.9
		c1.3,0.6,2.3,1.4,3.1,2.4c0.8,1,1.4,2.2,1.7,3.5c0.3,1.3,0.5,2.7,0.5,4.1v17.5h-6.9v-14c0-0.8,0-1.6-0.1-2.6
		c-0.1-0.9-0.3-1.8-0.6-2.7c-0.3-0.8-0.8-1.5-1.5-2.1c-0.7-0.6-1.6-0.8-2.8-0.8c-1.2,0-2.1,0.2-2.9,0.6c-0.8,0.4-1.4,0.9-2,1.6
		c-0.5,0.7-0.9,1.4-1.1,2.3c-0.2,0.8-0.3,1.7-0.3,2.7v15.1h-6.9V15.9z"/>
	<path class="st0" d="M232.8,23.6c-1.3-1.9-3.2-2.8-5.4-2.8c-0.9,0-1.8,0.2-2.7,0.7c-0.9,0.5-1.3,1.2-1.3,2.3c0,0.8,0.4,1.5,1.1,1.8
		c0.7,0.4,1.7,0.7,2.8,1c1.1,0.3,2.3,0.5,3.6,0.8c1.3,0.3,2.5,0.7,3.6,1.3c1.1,0.6,2,1.4,2.8,2.5c0.7,1,1.1,2.5,1.1,4.3
		c0,1.7-0.4,3.1-1.1,4.2c-0.7,1.1-1.6,2.1-2.8,2.7c-1.1,0.7-2.4,1.2-3.8,1.5c-1.4,0.3-2.9,0.5-4.3,0.5c-2.2,0-4.1-0.3-6-0.9
		c-1.8-0.6-3.4-1.7-4.9-3.4l4.6-4.3c0.9,1,1.8,1.8,2.9,2.5c1,0.6,2.3,1,3.7,1c0.5,0,1-0.1,1.6-0.2c0.5-0.1,1-0.3,1.5-0.6
		c0.5-0.3,0.8-0.6,1.1-1c0.3-0.4,0.4-0.9,0.4-1.4c0-1-0.4-1.7-1.1-2.1c-0.7-0.5-1.7-0.8-2.8-1.1c-1.1-0.3-2.3-0.6-3.6-0.8
		c-1.3-0.2-2.5-0.7-3.6-1.2c-1.1-0.6-2-1.3-2.8-2.3c-0.7-1-1.1-2.4-1.1-4.2c0-1.5,0.3-2.9,1-4c0.6-1.1,1.5-2.1,2.5-2.8
		c1-0.7,2.2-1.3,3.6-1.6s2.7-0.5,4.1-0.5c1.8,0,3.7,0.3,5.5,1c1.8,0.6,3.3,1.7,4.4,3.3L232.8,23.6z"/>
	<path class="st0" d="M241.3,6.5c0-1.1,0.4-2.1,1.2-2.9c0.8-0.8,1.9-1.2,3.1-1.2c1.3,0,2.3,0.4,3.2,1.2c0.9,0.8,1.3,1.8,1.3,3
		c0,1.2-0.4,2.2-1.3,3c-0.9,0.8-1.9,1.2-3.2,1.2c-1.3,0-2.3-0.4-3.1-1.2C241.7,8.6,241.3,7.6,241.3,6.5z M242.3,15.9h6.9v27.7h-6.9
		V15.9z"/>
	<path class="st0" d="M254.4,29.8c0-2.2,0.4-4.2,1.2-6c0.8-1.8,1.9-3.3,3.2-4.6c1.3-1.3,2.9-2.3,4.8-2.9c1.8-0.7,3.8-1,5.9-1
		c2.1,0,4,0.3,5.9,1c1.8,0.7,3.4,1.7,4.8,2.9c1.3,1.3,2.4,2.8,3.2,4.6s1.2,3.8,1.2,6s-0.4,4.2-1.2,6s-1.9,3.3-3.2,4.6
		c-1.3,1.3-2.9,2.3-4.8,2.9c-1.8,0.7-3.8,1-5.9,1c-2.1,0-4-0.3-5.9-1c-1.8-0.7-3.4-1.7-4.8-2.9c-1.3-1.3-2.4-2.8-3.2-4.6
		C254.8,34,254.4,32,254.4,29.8z M261.3,29.8c0,1.1,0.2,2.1,0.5,3.1c0.4,1,0.9,1.9,1.6,2.7c0.7,0.8,1.6,1.4,2.6,1.8
		c1,0.5,2.1,0.7,3.4,0.7c1.3,0,2.4-0.2,3.4-0.7c1-0.5,1.9-1.1,2.6-1.8c0.7-0.8,1.3-1.7,1.6-2.7c0.4-1,0.5-2,0.5-3.1
		c0-1.1-0.2-2.1-0.5-3.1c-0.4-1-0.9-1.9-1.6-2.7c-0.7-0.8-1.6-1.4-2.6-1.8c-1-0.5-2.1-0.7-3.4-0.7c-1.3,0-2.4,0.2-3.4,0.7
		c-1,0.5-1.9,1.1-2.6,1.8c-0.7,0.8-1.3,1.7-1.6,2.7C261.5,27.7,261.3,28.7,261.3,29.8z"/>
	<path class="st0" d="M289.6,15.9h6.6v4.4h0.1c0.7-1.4,1.7-2.6,3-3.6c1.3-1,3.2-1.5,5.5-1.5c1.8,0,3.4,0.3,4.7,0.9
		c1.3,0.6,2.3,1.4,3.1,2.4c0.8,1,1.4,2.2,1.7,3.5c0.3,1.3,0.5,2.7,0.5,4.1v17.5h-6.9v-14c0-0.8,0-1.6-0.1-2.6
		c-0.1-0.9-0.3-1.8-0.6-2.7c-0.3-0.8-0.8-1.5-1.5-2.1c-0.7-0.6-1.6-0.8-2.8-0.8c-1.2,0-2.1,0.2-2.9,0.6c-0.8,0.4-1.4,0.9-2,1.6
		c-0.5,0.7-0.9,1.4-1.1,2.3c-0.2,0.8-0.3,1.7-0.3,2.7v15.1h-6.9V15.9z"/>
	<path class="st0" d="M338.6,39.9h-0.2c-1,1.6-2.3,2.7-3.8,3.4c-1.5,0.7-3.2,1.1-5.1,1.1c-1.3,0-2.5-0.2-3.7-0.5
		c-1.2-0.3-2.3-0.9-3.2-1.6c-0.9-0.7-1.7-1.6-2.3-2.6c-0.6-1-0.9-2.3-0.9-3.6c0-1.5,0.3-2.8,0.8-3.8c0.5-1.1,1.3-1.9,2.2-2.7
		c0.9-0.7,2-1.3,3.1-1.7c1.2-0.4,2.4-0.7,3.7-1c1.3-0.2,2.6-0.3,3.9-0.4c1.3-0.1,2.5-0.1,3.7-0.1h1.7v-0.8c0-1.7-0.6-3-1.8-3.9
		c-1.2-0.9-2.7-1.3-4.6-1.3c-1.5,0-2.8,0.3-4.1,0.8c-1.3,0.5-2.4,1.2-3.3,2.1l-3.6-3.6c1.5-1.6,3.3-2.7,5.4-3.4c2.1-0.7,4.2-1,6.4-1
		c2,0,3.6,0.2,5,0.7c1.3,0.4,2.5,1,3.3,1.7c0.9,0.7,1.6,1.5,2.1,2.4c0.5,0.9,0.8,1.8,1,2.7c0.2,0.9,0.3,1.8,0.4,2.7
		c0,0.9,0.1,1.6,0.1,2.3v15.9h-6.2V39.9z M338.2,31.2h-1.4c-1,0-2,0-3.2,0.1c-1.2,0.1-2.3,0.3-3.4,0.5c-1.1,0.3-2,0.7-2.7,1.3
		c-0.7,0.6-1.1,1.3-1.1,2.3c0,0.7,0.1,1.2,0.4,1.6c0.3,0.4,0.7,0.8,1.1,1.1c0.5,0.3,1,0.5,1.6,0.7c0.6,0.1,1.2,0.2,1.7,0.2
		c2.4,0,4.1-0.6,5.3-1.7c1.1-1.1,1.7-2.7,1.7-4.6V31.2z"/>
	<path class="st0" d="M351,0h6.9v43.7H351V0z"/>
</g>
<g>
	<path class="st1" d="M27.4,128c-16.7,0-26.5-10.9-27-11.3L0,116.2l7.2-10l0.7,0.8c0.1,0.1,7.8,8.6,19.1,8.6c9,0,15.7-6,15.7-14
		c0-10.4-9.7-14.1-18-14.1h-6.2l-3.1-7.1l18-21.2c1.4-1.6,2.7-3,3.7-4c-1.2,0.1-2.8,0.2-4.9,0.2H3.9V43.8h50.2v8.4L32.8,76.7
		c10.9,1.7,23,8.9,23,24.4C55.8,116.4,43.6,128,27.4,128z"/>
</g>
</svg>
