<svg xmlns="http://www.w3.org/2000/svg" viewBox="0 0 357.9 128.01">
<defs><style>.cls-1{fill:#1a171b;}.cls-2{fill:#b6c229;}</style></defs>
<path class="cls-1" d="M79.2,39.51h-.12a8.9,8.9,0,0,1-4,3.7,13.15,13.15,0,0,1-5.49,1.15,14,14,0,0,1-5.75-1.12,12.85,12.85,0,0,1-4.3-3.09,13.31,13.31,0,0,1-2.72-4.63,17.39,17.39,0,0,1-.92-5.71,16.48,16.48,0,0,1,1-5.72,14.25,14.25,0,0,1,2.75-4.62,12.62,12.62,0,0,1,4.24-3.09,12.88,12.88,0,0,1,5.43-1.13,13.85,13.85,0,0,1,3.47.4,12.1,12.1,0,0,1,2.65,1,11.12,11.12,0,0,1,2,1.36,9.57,9.57,0,0,1,1.33,1.42h.17V0h6.93V43.67H79.2Zm-16.41-9.7a9,9,0,0,0,.55,3.12A7.76,7.76,0,0,0,65,35.58a8.2,8.2,0,0,0,12,0,7.74,7.74,0,0,0,1.61-2.65,9.12,9.12,0,0,0,0-6.24A7.78,7.78,0,0,0,76.92,24a8.19,8.19,0,0,0-12,0,7.8,7.8,0,0,0-1.62,2.66A8.92,8.92,0,0,0,62.79,29.81Z"/><path class="cls-1" d="M91.33,6.53a4,4,0,0,1,1.24-2.92,4.27,4.27,0,0,1,3.15-1.24,4.55,4.55,0,0,1,3.2,1.18,3.85,3.85,0,0,1,1.3,3,3.84,3.84,0,0,1-1.3,3,4.56,4.56,0,0,1-3.2,1.19,4.27,4.27,0,0,1-3.15-1.25A4,4,0,0,1,91.33,6.53Zm1,9.41h6.93V43.67H92.31Z"/><path class="cls-1" d="M105.48,15.94h6.58v4.33h.12a9.42,9.42,0,0,1,3-3.49,9,9,0,0,1,5.52-1.53q6.52,0,8.66,5.14a9.9,9.9,0,0,1,3.76-3.9,10.93,10.93,0,0,1,5.37-1.24,10.75,10.75,0,0,1,4.68.92,8.22,8.22,0,0,1,3.09,2.55,10.28,10.28,0,0,1,1.7,3.78,19.66,19.66,0,0,1,.52,4.65V43.67h-6.93V28a13.16,13.16,0,0,0-.23-2.46,5.73,5.73,0,0,0-.81-2.08A4,4,0,0,0,138.92,22a5.36,5.36,0,0,0-2.54-.52,5.75,5.75,0,0,0-2.74.6,5.47,5.47,0,0,0-1.85,1.62,6.74,6.74,0,0,0-1,2.31,11.2,11.2,0,0,0-.32,2.63v15H123.5V27.15A7,7,0,0,0,122.4,23a4.16,4.16,0,0,0-3.64-1.53,6.53,6.53,0,0,0-2.91.58,5.51,5.51,0,0,0-2,1.56,6.1,6.1,0,0,0-1.12,2.25,10.1,10.1,0,0,0-.35,2.66V43.67h-6.93Z"/><path class="cls-1" d="M160.12,32.23a7,7,0,0,0,2.43,4.85,7.55,7.55,0,0,0,5,1.74,8.32,8.32,0,0,0,4.37-1.07A12.17,12.17,0,0,0,175,35.06l5,3.76a14,14,0,0,1-5.43,4.27,15.93,15.93,0,0,1-6.29,1.27,16.44,16.44,0,0,1-5.89-1,14.11,14.11,0,0,1-4.8-2.94,13.89,13.89,0,0,1-3.21-4.6,14.63,14.63,0,0,1-1.18-6,14.64,14.64,0,0,1,1.18-6,13.82,13.82,0,0,1,8-7.54,16.67,16.67,0,0,1,5.89-1,13.54,13.54,0,0,1,5.28,1,11.23,11.23,0,0,1,4.1,2.92,13.32,13.32,0,0,1,2.66,4.71,19.8,19.8,0,0,1,.95,6.44v1.9ZM174.33,27a6.54,6.54,0,0,0-1.9-4.82,7.2,7.2,0,0,0-5.15-1.76,6.74,6.74,0,0,0-4.93,1.79A7.94,7.94,0,0,0,160.12,27Z"/><path class="cls-1" d="M186.29,15.94h6.58v4.45H193a9.62,9.62,0,0,1,3-3.61,8.9,8.9,0,0,1,5.49-1.53,11,11,0,0,1,4.71.92,9,9,0,0,1,3.15,2.43,9.36,9.36,0,0,1,1.73,3.47,15.78,15.78,0,0,1,.52,4.1v17.5h-6.93v-14c0-.77,0-1.62-.12-2.57a9.49,9.49,0,0,0-.6-2.65,4.9,4.9,0,0,0-1.54-2.08,4.36,4.36,0,0,0-2.83-.84,6.53,6.53,0,0,0-2.91.58,5.51,5.51,0,0,0-2,1.56,6.1,6.1,0,0,0-1.12,2.25,10.1,10.1,0,0,0-.35,2.66V43.67h-6.93Z"/><path class="cls-1" d="M232.79,23.63a6.35,6.35,0,0,0-5.43-2.84,5.86,5.86,0,0,0-2.72.7,2.36,2.36,0,0,0-1.33,2.25,1.94,1.94,0,0,0,1.1,1.85,12.45,12.45,0,0,0,2.77,1c1.12.27,2.32.55,3.61.84a14.24,14.24,0,0,1,3.62,1.33,7.85,7.85,0,0,1,2.77,2.45,7.35,7.35,0,0,1,1.1,4.28,7.73,7.73,0,0,1-1.07,4.18,8.4,8.4,0,0,1-2.78,2.75,12.31,12.31,0,0,1-3.84,1.5,20,20,0,0,1-4.27.46,18.52,18.52,0,0,1-5.95-.92,11.27,11.27,0,0,1-4.85-3.35l4.62-4.33A12.77,12.77,0,0,0,223,38.21a6.86,6.86,0,0,0,3.72.95,7.16,7.16,0,0,0,1.56-.17,4.87,4.87,0,0,0,1.5-.58,3.45,3.45,0,0,0,1.13-1,2.6,2.6,0,0,0-.66-3.55,10,10,0,0,0-2.78-1.13c-1.11-.29-2.32-.55-3.61-.81a14,14,0,0,1-3.61-1.21,7.65,7.65,0,0,1-2.77-2.34,7,7,0,0,1-1.1-4.16,8,8,0,0,1,1-4,8.25,8.25,0,0,1,2.51-2.8,10.94,10.94,0,0,1,3.58-1.62,16.23,16.23,0,0,1,4.1-.52,16.6,16.6,0,0,1,5.49.95,9,9,0,0,1,4.39,3.27Z"/><path class="cls-1" d="M241.34,6.53a4,4,0,0,1,1.24-2.92,4.27,4.27,0,0,1,3.15-1.24,4.55,4.55,0,0,1,3.2,1.18,3.85,3.85,0,0,1,1.3,3,3.84,3.84,0,0,1-1.3,3,4.56,4.56,0,0,1-3.2,1.19,4.27,4.27,0,0,1-3.15-1.25A4,4,0,0,1,241.34,6.53Zm1,9.41h6.93V43.67h-6.93Z"/><path class="cls-1" d="M254.39,29.81a14.64,14.64,0,0,1,1.18-6,13.84,13.84,0,0,1,8-7.54,17.23,17.23,0,0,1,11.79,0,13.84,13.84,0,0,1,8,7.54,14.64,14.64,0,0,1,1.18,6,14.63,14.63,0,0,1-1.18,6,13.89,13.89,0,0,1-3.21,4.6,14.07,14.07,0,0,1-4.79,2.94,17.23,17.23,0,0,1-11.79,0,14.16,14.16,0,0,1-4.79-2.94,13.89,13.89,0,0,1-3.21-4.6A14.63,14.63,0,0,1,254.39,29.81Zm6.93,0a9,9,0,0,0,.55,3.12,7.92,7.92,0,0,0,1.62,2.65,7.89,7.89,0,0,0,6,2.54,7.89,7.89,0,0,0,6-2.54,7.74,7.74,0,0,0,1.61-2.65,9.12,9.12,0,0,0,0-6.24A7.78,7.78,0,0,0,275.45,24a8.46,8.46,0,0,0-9.39-1.85,7.91,7.91,0,0,0-4.19,4.51A8.92,8.92,0,0,0,261.32,29.81Z"/><path class="cls-1" d="M289.57,15.94h6.58v4.45h.12a9.62,9.62,0,0,1,3-3.61,8.9,8.9,0,0,1,5.49-1.53,11,11,0,0,1,4.71.92,9,9,0,0,1,3.15,2.43,9.36,9.36,0,0,1,1.73,3.47,16.22,16.22,0,0,1,.52,4.1v17.5h-6.93v-14c0-.77,0-1.62-.12-2.57a9.16,9.16,0,0,0-.61-2.65,4.8,4.8,0,0,0-1.53-2.08,4.36,4.36,0,0,0-2.83-.84,6.51,6.51,0,0,0-2.91.58,5.51,5.51,0,0,0-2,1.56,6.1,6.1,0,0,0-1.12,2.25,10.1,10.1,0,0,0-.35,2.66V43.67h-6.93Z"/><path class="cls-1" d="M338.61,39.86h-.17a9,9,0,0,1-3.82,3.43,11.83,11.83,0,0,1-5.08,1.07,13.44,13.44,0,0,1-3.73-.52,9.79,9.79,0,0,1-3.23-1.56,7.93,7.93,0,0,1-2.28-2.6,7.34,7.34,0,0,1-.87-3.64,8.38,8.38,0,0,1,.81-3.84,7.79,7.79,0,0,1,2.17-2.65,10.9,10.9,0,0,1,3.14-1.71,21.92,21.92,0,0,1,3.73-.95,33.92,33.92,0,0,1,3.9-.41c1.31-.05,2.54-.08,3.7-.08h1.73v-.75a4.5,4.5,0,0,0-1.79-3.9,7.58,7.58,0,0,0-4.57-1.3,10.73,10.73,0,0,0-4.1.78,10.38,10.38,0,0,0-3.29,2.11l-3.64-3.64a13.39,13.39,0,0,1,5.4-3.41,20,20,0,0,1,6.39-1,16.14,16.14,0,0,1,5,.66,10.85,10.85,0,0,1,3.35,1.71,7.39,7.39,0,0,1,2.05,2.4,10.56,10.56,0,0,1,1,2.74,15.3,15.3,0,0,1,.38,2.68c0,.87.06,1.63.06,2.29V43.67h-6.24Zm-.41-8.61h-1.44c-1,0-2,0-3.23.12a17.05,17.05,0,0,0-3.38.54,7.73,7.73,0,0,0-2.69,1.28,2.75,2.75,0,0,0-1.1,2.33,2.94,2.94,0,0,0,.44,1.65,3.89,3.89,0,0,0,1.12,1.13,4.54,4.54,0,0,0,1.56.66,7.35,7.35,0,0,0,1.73.2c2.39,0,4.15-.56,5.29-1.7a6.28,6.28,0,0,0,1.7-4.65Z"/><path class="cls-1" d="M351,0h6.93V43.67H351Z"/><path class="cls-2" d="M27.39,128A37.74,37.74,0,0,1,.44,116.69L0,116.2l7.2-10,.68.76c.08.09,7.85,8.59,19.05,8.59,9,0,15.74-6,15.74-14,0-10.43-9.72-14.13-18-14.13H18.46l-3.07-7.06,18-21.21c1.39-1.64,2.71-3,3.67-4-1.17.08-2.81.15-4.89.15H3.91V43.78H54.1v8.38L32.82,76.65c11,1.68,23,8.93,23,24.43S43.6,128,27.39,128Z"/></svg>