<?xml version="1.0" encoding="utf-8"?>
<!-- Svg Vector Icons : http://www.onlinewebfonts.com/icon -->
<!DOCTYPE svg PUBLIC "-//W3C//DTD SVG 1.1//EN" "http://www.w3.org/Graphics/SVG/1.1/DTD/svg11.dtd">
<svg version="1.1" xmlns="http://www.w3.org/2000/svg" xmlns:xlink="http://www.w3.org/1999/xlink" x="0px" y="0px" viewBox="0 0 1000 1000" enable-background="new 0 0 1000 1000" xml:space="preserve">
<metadata> Svg Vector Icons : http://www.onlinewebfonts.com/icon </metadata>
<g><path d="M303.7,978.2c-16,15.9-41.8,15.8-57.7-0.2h0c-15.8-16-15.7-41.8,0.2-57.6l421.4-417.5L248.1,79.5c-15.9-16-15.7-41.8,0.2-57.7c16-15.9,41.8-15.7,57.7,0.2L751.9,472c0.7,0.7,0.9,1.6,1.5,2.3c0.2,0.2,0.4,0.2,0.5,0.4c7.9,7.9,11.8,18.3,11.8,28.7c0,10.5-4,21-12.1,28.9L303.7,978.2L303.7,978.2z"/></g>
</svg>