<svg id="Ebene_1" data-name="Ebene 1" xmlns="http://www.w3.org/2000/svg" xmlns:xlink="http://www.w3.org/1999/xlink" viewBox="0 0 165.65 81.36"><defs><style>.cls-1,.cls-3{fill:none;}.cls-2{clip-path:url(#clip-path);}.cls-3{stroke:#403f3e;stroke-linecap:round;stroke-linejoin:round;stroke-width:8px;}.cls-4{fill:#403f3e;}</style><clipPath id="clip-path" transform="translate(-5.11 -31.37)"><rect class="cls-1" x="5.11" y="31.37" width="165.65" height="81.36"/></clipPath></defs><title>17DDL100 Saege</title><g class="cls-2"><path class="cls-3" d="M71.44,35.37H33.26a9,9,0,0,0-8.73,6.76h0L9.35,97.67h0a9.38,9.38,0,0,0-.25,2.07,9,9,0,0,0,9,9H40.72a9,9,0,0,0,7.7-4.33C48.75,103.85,79,49.29,79,49.29a9,9,0,0,0-7.54-13.92Z" transform="translate(-5.11 -31.37)"/><path class="cls-4" d="M41.06,51a5.11,5.11,0,0,0-4.93,3.8h0L27.28,86h0a4.93,4.93,0,0,0-.14,1.17,5.1,5.1,0,0,0,10,1.3h0L46,57.37h0a4.94,4.94,0,0,0,.17-1.28A5.11,5.11,0,0,0,41.06,51" transform="translate(-5.11 -31.37)"/><path class="cls-3" d="M103.63,88.3l-.11.17L85.3,84.05,76.4,99.18l-20.63-5M80.7,44.91l86.06,0-9,22.1-18.22-4.43-8.89,15.14-18.22-4.43-8.79,15" transform="translate(-5.11 -31.37)"/></g></svg>